<svg width="48" height="48" viewBox="0 0 48 48" fill="none" xmlns="http://www.w3.org/2000/svg">
<circle cx="24" cy="24" r="24" fill="#F4F7FE"/>
<path opacity="0.2" d="M29.1427 24.0001L20.5713 32.5716V15.4287L29.1427 24.0001Z" fill="#0693F1"/>
<path d="M29.7494 23.3936L21.1779 14.8222C21.0581 14.7022 20.9053 14.6204 20.7389 14.5873C20.5725 14.5542 20.4001 14.5712 20.2434 14.6361C20.0867 14.701 19.9528 14.811 19.8586 14.9521C19.7644 15.0931 19.7142 15.259 19.7144 15.4286V32.5715C19.7142 32.7411 19.7644 32.907 19.8586 33.048C19.9528 33.1891 20.0867 33.2991 20.2434 33.364C20.4001 33.4289 20.5725 33.4459 20.7389 33.4128C20.9053 33.3797 21.0581 33.2979 21.1779 33.1779L29.7494 24.6065C29.8291 24.5269 29.8923 24.4323 29.9354 24.3283C29.9785 24.2242 30.0007 24.1127 30.0007 24C30.0007 23.8874 29.9785 23.7759 29.9354 23.6718C29.8923 23.5678 29.8291 23.4732 29.7494 23.3936ZM21.4286 30.5025V17.4975L27.9311 24L21.4286 30.5025Z" fill="#0693F1"/>
</svg>
